<?xml version="1.0" standalone="no"?>
<!DOCTYPE svg PUBLIC "-//W3C//DTD SVG 20010904//EN"
 "http://www.w3.org/TR/2001/REC-SVG-20010904/DTD/svg10.dtd">
<svg version="1.0" xmlns="http://www.w3.org/2000/svg"
 width="1024.000000pt" height="1024.000000pt" viewBox="0 0 1024.000000 1024.000000"
 preserveAspectRatio="xMidYMid meet">

<g transform="translate(0.000000,1024.000000) scale(0.100000,-0.100000)"
fill="#000000" stroke="none">
<path d="M1390 6511 l0 -89 168 -4 c183 -6 234 -17 285 -66 62 -58 61 -56 68
-427 l6 -340 -1 340 c-1 312 -3 343 -20 375 -52 99 -112 121 -333 128 l-163 4
0 74 c0 42 4 75 10 75 6 1 14 2 19 3 26 3 20 16 -7 16 l-32 0 0 -89z"/>
<path d="M1460 6590 c0 -7 172 -10 513 -11 281 -1 551 -2 600 -3 48 -1 87 2
87 6 0 4 -258 8 -572 8 -315 0 -585 3 -600 5 -16 3 -28 1 -28 -5z"/>
<path d="M2670 6581 c0 -4 23 -9 52 -10 28 -1 50 0 47 2 -9 9 -99 16 -99 8z"/>
<path d="M2788 6448 l4 -140 -34 25 c-36 28 -79 47 -118 53 -14 2 -52 8 -85
13 -33 5 -99 9 -147 8 -83 -2 -89 -4 -118 -32 -44 -45 -50 -99 -48 -429 l2
-291 6 325 c5 288 7 329 23 358 29 53 72 66 193 58 181 -12 266 -39 316 -100
17 -20 18 -14 18 131 0 83 -3 154 -7 156 -5 3 -7 -58 -5 -135z"/>
<path d="M5187 6445 c-209 -43 -389 -202 -454 -399 -24 -72 -27 -97 -27 -221
0 -111 3 -152 18 -195 32 -95 79 -173 142 -236 224 -225 655 -233 893 -18 70
63 115 131 149 222 34 93 42 275 17 388 -47 218 -193 381 -395 445 -85 27
-251 34 -343 14z m352 -28 c98 -34 154 -69 225 -141 73 -73 125 -174 151 -290
25 -112 17 -295 -17 -386 -90 -243 -324 -382 -618 -367 -177 9 -311 68 -421
185 -96 102 -136 201 -146 357 -12 203 50 379 176 497 141 134 272 181 478
173 74 -3 121 -10 172 -28z"/>
<path d="M5220 6386 c-204 -59 -310 -243 -312 -541 -2 -182 31 -297 119 -417
34 -47 144 -128 173 -128 8 0 -10 14 -40 31 -113 62 -189 171 -224 319 -21 89
-21 303 0 389 51 207 170 327 345 348 146 17 307 -84 384 -241 53 -107 68
-195 61 -356 -3 -74 -8 -148 -12 -165 -4 -16 -4 -27 0 -24 14 13 27 121 27
222 -1 139 -21 232 -71 334 -49 100 -133 181 -219 214 -70 26 -172 33 -231 15z"/>
<path d="M5701 5579 c-1 -9 -17 -48 -36 -86 -56 -112 -153 -188 -256 -200 -27
-3 -49 -9 -49 -13 0 -13 103 11 149 35 69 36 130 101 169 182 18 40 32 78 29
85 -4 9 -6 8 -6 -3z"/>
<path d="M5235 5292 c28 -12 105 -22 105 -13 0 4 -15 8 -32 9 -18 1 -46 4 -63
7 -23 4 -25 3 -10 -3z"/>
<path d="M7156 6443 c22 -46 5 -106 -146 -513 -221 -599 -224 -606 -312 -651
-21 -11 -38 -24 -38 -29 0 -6 66 -10 170 -10 110 0 170 4 170 10 0 6 -8 13
-17 16 -84 27 -93 55 -55 170 17 49 39 110 51 136 l20 48 213 3 213 2 -211 3
c-190 2 -212 0 -226 -15 -16 -20 -83 -200 -93 -251 -8 -41 14 -78 57 -97 28
-11 13 -13 -123 -14 l-154 -1 52 35 c45 30 58 47 92 118 31 65 327 851 356
945 9 31 -3 112 -17 112 -6 0 -7 -7 -2 -17z"/>
<path d="M7246 6443 l72 -4 125 -327 c225 -586 300 -772 326 -803 14 -16 44
-36 66 -44 37 -13 24 -15 -168 -13 -207 1 -207 1 -177 19 51 32 58 60 31 138
-30 85 -83 212 -87 208 -2 -2 19 -60 46 -130 28 -69 50 -133 50 -142 0 -30
-21 -57 -56 -71 -19 -8 -32 -19 -29 -24 3 -5 102 -9 221 -10 169 0 215 2 212
12 -3 7 -19 17 -37 22 -52 15 -88 70 -147 221 -116 297 -198 509 -282 728
l-87 227 -75 -2 -75 -2 71 -3z"/>
<path d="M4110 6431 c0 -6 8 -11 18 -11 35 0 80 -38 96 -82 15 -39 17 -92 14
-473 -3 -389 -5 -434 -21 -470 -38 -84 -105 -125 -170 -103 -46 15 -72 43 -97
100 -19 45 -24 49 -47 43 -33 -8 -113 -62 -120 -82 -8 -21 53 -80 106 -100 36
-14 76 -18 186 -18 129 0 144 2 188 25 58 29 111 85 140 148 21 45 22 62 27
487 6 495 3 481 81 514 21 9 39 20 39 24 0 5 -4 5 -10 2 -13 -8 -408 -8 -420
0 -6 3 -10 1 -10 -4z m369 -26 c-53 -29 -54 -36 -59 -505 l-5 -435 -27 -57
c-30 -65 -70 -108 -131 -140 -38 -21 -56 -23 -182 -23 -148 0 -181 7 -242 52
-37 27 -43 58 -15 80 20 15 88 53 97 53 3 0 15 -20 25 -43 26 -58 64 -95 112
-108 33 -9 46 -7 82 10 52 26 79 62 100 131 14 45 16 119 16 469 0 385 -2 419
-19 457 -10 23 -29 49 -42 58 -22 15 -14 16 146 16 151 -1 167 -2 144 -15z"/>
<path d="M6100 6429 c0 -4 12 -9 28 -12 46 -9 81 -44 88 -88 4 -21 10 -39 15
-39 4 0 2 21 -6 48 -8 26 -15 48 -15 49 0 1 -12 9 -27 17 -26 14 -15 15 137
16 155 0 163 -1 141 -16 -50 -35 -51 -48 -51 -565 0 -424 2 -485 16 -515 16
-34 58 -64 88 -64 8 0 17 -6 19 -12 3 -8 6 -6 6 5 1 11 -6 17 -22 17 -30 0
-64 25 -82 60 -13 25 -15 102 -15 498 0 258 3 483 6 501 8 38 46 78 85 86 16
4 29 11 29 15 0 5 -9 6 -19 2 -11 -4 -110 -5 -220 -2 -111 3 -201 2 -201 -1z"/>
<path d="M6225 6210 c2 -94 12 -99 13 -5 1 41 -2 75 -7 75 -4 0 -7 -31 -6 -70z"/>
<path d="M7193 6223 c-7 -3 -13 -13 -13 -22 0 -17 -71 -233 -135 -410 -14 -40
-24 -80 -21 -87 8 -21 364 -20 372 1 3 8 -30 108 -74 222 -43 114 -85 226 -92
248 -14 47 -20 54 -37 48z m108 -272 c49 -128 89 -237 89 -242 0 -5 -80 -9
-180 -9 -99 0 -180 4 -180 8 0 5 29 89 64 188 35 98 72 206 81 239 24 87 27
94 33 70 2 -11 44 -125 93 -254z"/>
<path d="M6221 6098 c0 -13 4 -32 8 -43 6 -15 8 -9 9 23 0 23 -3 42 -9 42 -5
0 -9 -10 -8 -22z"/>
<path d="M6221 5688 c-2 -370 -4 -378 -78 -413 -24 -11 -43 -23 -43 -27 0 -3
93 -7 207 -8 114 0 205 2 202 4 -3 3 -90 6 -193 7 l-188 2 35 20 c65 37 68 54
71 415 2 177 0 322 -4 322 -3 0 -8 -145 -9 -322z"/>
<path d="M2770 5723 c-14 -14 -50 -38 -80 -52 -53 -25 -62 -26 -247 -26 -105
0 -189 -4 -186 -8 8 -12 333 -6 385 8 26 6 70 26 98 43 l50 31 0 -181 0 -182
-32 32 c-18 17 -54 40 -79 51 -48 22 -169 43 -169 31 0 -4 26 -10 59 -13 78
-7 146 -38 193 -89 l39 -42 -1 212 c-1 117 -2 212 -3 212 -1 0 -13 -12 -27
-27z"/>
<path d="M1912 5500 c0 -14 2 -19 5 -12 2 6 2 18 0 25 -3 6 -5 1 -5 -13z"/>
<path d="M2256 5461 c-10 -11 -16 -26 -13 -33 4 -10 6 -10 6 1 1 8 8 23 18 33
9 10 14 18 11 18 -3 0 -13 -9 -22 -19z"/>
<path d="M2343 5473 c32 -2 81 -2 110 0 29 2 3 3 -58 3 -60 0 -84 -1 -52 -3z"/>
<path d="M1912 5450 c0 -14 2 -19 5 -12 2 6 2 18 0 25 -3 6 -5 1 -5 -13z"/>
<path d="M1904 5401 c0 -11 4 -17 8 -15 4 3 8 12 8 20 0 8 -4 14 -8 14 -4 0
-8 -9 -8 -19z"/>
<path d="M2239 4925 c-6 -533 -5 -523 -67 -643 -72 -138 -215 -254 -334 -269
l-43 -6 21 24 c53 59 85 165 83 272 -2 57 -2 55 -9 -28 -9 -98 -38 -189 -75
-234 -14 -15 -21 -31 -18 -35 4 -4 0 -4 -10 0 -10 3 -17 1 -17 -5 0 -14 6 -14
72 0 132 28 274 144 340 279 67 135 69 153 66 672 l-3 463 -6 -490z"/>
<path d="M1901 4873 c-1 -243 -4 -448 -7 -457 -3 -9 -1 -16 5 -16 12 0 21 851
9 892 -3 13 -6 -176 -7 -419z"/>
<path d="M7285 4858 c0 -54 -11 -91 -77 -268 -42 -113 -120 -321 -172 -463
-117 -314 -136 -347 -219 -382 -20 -8 -37 -20 -37 -25 0 -6 67 -10 175 -10
160 0 213 8 152 24 -45 11 -77 45 -77 82 0 34 71 236 91 261 9 11 53 13 217
11 l205 -3 48 -120 c26 -66 48 -134 48 -151 1 -33 -28 -67 -67 -79 -12 -3 -20
-11 -17 -16 8 -13 422 -12 430 1 3 6 -2 13 -12 16 -50 15 -86 41 -103 74 -10
20 -107 268 -215 551 -109 283 -201 522 -206 532 -8 14 -22 17 -82 15 l-72 -2
71 -3 71 -4 28 -72 c44 -115 68 -180 148 -387 41 -107 112 -292 157 -409 45
-118 91 -228 102 -244 12 -16 39 -38 62 -48 l41 -19 -199 0 -199 0 29 22 c38
29 44 38 44 70 0 28 -83 252 -102 275 -15 19 -421 19 -436 0 -19 -23 -92 -238
-92 -271 0 -38 15 -60 54 -80 28 -14 19 -15 -124 -15 l-154 -1 43 23 c77 41
90 66 224 427 238 637 251 677 229 733 -4 9 -7 -11 -7 -45z"/>
<path d="M4612 4903 c-34 -2 -60 -8 -57 -13 3 -4 32 -6 65 -3 l61 4 -2 -116
c-1 -109 -2 -115 -16 -88 -25 49 -75 92 -127 110 -41 14 -84 18 -213 18 -114
0 -166 -4 -174 -12 -14 -14 -18 -401 -5 -422 5 -7 53 -11 140 -11 159 0 223
15 259 62 l25 31 1 -127 2 -128 -31 36 c-20 22 -48 40 -73 47 -52 15 -304 16
-318 2 -6 -6 -12 -32 -14 -59 -3 -35 -2 -43 5 -29 5 11 9 34 9 52 l1 32 108 3
c128 4 217 -6 250 -28 13 -9 32 -33 41 -55 9 -21 19 -39 24 -39 4 0 7 77 7
170 0 158 -9 212 -24 140 -15 -75 -84 -100 -281 -100 l-125 0 0 209 0 210 46
7 c64 9 291 -2 336 -17 55 -18 103 -63 124 -114 11 -25 22 -45 27 -45 4 0 7
63 7 140 0 77 -3 139 -7 138 -5 -1 -36 -3 -71 -5z"/>
<path d="M3820 4892 c0 -4 19 -14 42 -22 22 -8 51 -28 62 -43 21 -28 21 -37
21 -515 0 -473 -1 -488 -20 -522 -15 -24 -34 -39 -63 -50 -23 -8 -42 -18 -42
-22 0 -4 106 -8 235 -8 129 0 235 4 235 8 0 4 -19 13 -43 19 -86 23 -108 83
-106 291 1 57 -2 106 -6 110 -4 4 -5 -63 -3 -148 6 -188 17 -221 80 -250 l43
-20 -199 0 -199 0 34 23 c65 44 64 31 64 567 0 537 0 533 -65 560 -16 7 -30
16 -30 21 0 5 -9 9 -20 9 -11 0 -20 -4 -20 -8z"/>
<path d="M3883 4888 c16 -10 657 -10 657 0 0 4 -150 7 -334 7 -184 0 -329 -3
-323 -7z"/>
<path d="M4890 4891 c0 -5 12 -12 28 -16 40 -10 71 -33 85 -63 8 -19 14 -157
17 -472 l6 -445 2 426 c2 487 0 506 -65 549 -41 26 -73 35 -73 21z"/>
<path d="M5125 4890 l-160 -6 160 -2 c143 -3 157 -4 134 -17 -54 -29 -54 -31
-57 -545 -3 -528 -2 -537 57 -577 l34 -23 -184 1 c-107 0 -176 4 -164 9 34 14
63 53 74 100 13 56 13 69 1 50 -5 -8 -10 -26 -10 -40 0 -43 -35 -88 -80 -101
-22 -7 -40 -16 -40 -21 0 -5 101 -8 225 -8 132 1 225 5 225 11 0 5 -7 9 -15 9
-8 0 -30 7 -49 17 -65 31 -66 38 -66 546 0 541 2 553 92 577 34 10 53 30 28
30 -5 0 -10 -4 -10 -10 0 -12 -27 -14 -32 -2 -1 4 -75 5 -163 2z"/>
<path d="M5526 4891 c-3 -4 12 -13 34 -20 39 -11 90 -61 90 -87 0 -8 5 -14 11
-14 18 0 -34 84 -61 97 -21 11 -6 13 105 13 l130 0 325 -392 c411 -495 376
-456 391 -441 16 16 6 671 -11 728 -14 46 -110 145 -110 113 0 -7 17 -22 37
-33 29 -15 42 -32 57 -70 16 -45 19 -88 24 -392 3 -196 1 -343 -4 -342 -5 0
-166 189 -357 420 l-349 420 -139 -2 c-77 -1 -142 1 -146 4 -9 10 -21 9 -27
-2z"/>
<path d="M6405 4890 c-3 -5 -1 -10 4 -10 6 0 11 5 11 10 0 6 -2 10 -4 10 -3 0
-8 -4 -11 -10z"/>
<path d="M6740 4890 c12 -8 11 -10 -7 -10 -12 0 -38 -14 -57 -30 -58 -51 -60
-72 -53 -632 l6 -498 -28 0 c-22 0 -41 16 -98 83 -600 701 -735 857 -744 857
-5 0 -1 -8 9 -18 23 -25 399 -460 617 -717 170 -200 181 -210 217 -213 l38 -3
-6 504 c-8 536 -5 578 39 625 11 12 38 27 59 32 42 12 51 30 16 30 -19 0 -20
-2 -8 -10z"/>
<path d="M6528 4883 c34 -2 88 -2 120 0 31 2 3 3 -63 3 -66 0 -92 -1 -57 -3z"/>
<path d="M5660 4314 c0 -275 -4 -463 -10 -486 -12 -42 -56 -83 -100 -93 -16
-4 -30 -11 -30 -16 0 -10 357 -12 374 -2 4 3 -16 15 -45 27 -44 17 -58 29 -74
61 -19 37 -20 66 -25 430 l-6 390 -1 -360 c-1 -198 2 -382 6 -408 10 -58 35
-96 82 -120 34 -17 33 -17 -120 -16 l-153 2 36 19 c38 19 59 51 71 108 9 38 9
900 0 908 -3 3 -5 -197 -5 -444z"/>
<path d="M2934 4695 c-7 -34 -28 -102 -47 -153 -189 -503 -738 -771 -1144
-558 -157 83 -281 225 -334 383 -17 52 -20 80 -16 146 2 45 8 92 12 105 l7 22
-135 0 -136 0 -6 -32 c-3 -18 -5 -67 -3 -108 l4 -75 2 87 c1 47 5 93 8 102 5
12 28 15 131 15 114 0 124 -1 118 -17 -55 -139 13 -348 163 -500 84 -86 178
-147 282 -183 86 -31 299 -34 399 -6 255 70 490 265 611 507 52 104 102 253
98 292 -2 28 -5 23 -14 -27z"/>
<path d="M7317 4673 c-2 -4 -21 -60 -42 -123 -21 -63 -59 -172 -85 -242 -34
-90 -44 -130 -37 -137 14 -14 353 -15 362 -1 3 5 -22 83 -56 172 -34 90 -74
201 -90 248 -25 78 -41 103 -52 83z m23 -18 c0 -22 31 -112 106 -307 35 -92
64 -170 64 -173 0 -3 -79 -5 -175 -5 -122 0 -175 3 -175 11 0 6 27 86 59 178
33 91 70 199 83 239 21 67 38 92 38 57z"/>
<path d="M2946 4628 c-3 -17 -2 -36 4 -42 7 -7 10 4 10 32 0 50 -5 54 -14 10z"/>
<path d="M2940 4536 c0 -19 -7 -67 -15 -106 -59 -281 -283 -554 -551 -673 -91
-40 -185 -59 -329 -67 l-130 -7 105 -1 c58 -1 139 5 180 12 316 57 600 314
709 642 28 84 52 234 37 234 -3 0 -6 -15 -6 -34z"/>
<path d="M1141 4399 c-1 -40 37 -155 80 -240 85 -171 252 -333 416 -405 65
-29 205 -64 248 -63 17 1 -4 7 -45 15 -175 31 -298 94 -424 214 -134 128 -215
264 -255 427 -11 43 -20 66 -20 52z"/>
<path d="M4130 4165 c0 -8 4 -15 8 -15 5 0 9 7 9 15 0 8 -4 15 -9 15 -4 0 -8
-7 -8 -15z"/>
</g>
</svg>
